<?xml version="1.0" encoding="UTF-8"?>
<svg version="1.1" xmlns="http://www.w3.org/2000/svg" width="1080" height="1080">
<path d="M0 0 C356.4 0 712.8 0 1080 0 C1080 356.4 1080 712.8 1080 1080 C723.6 1080 367.2 1080 0 1080 C0 723.6 0 367.2 0 0 Z " fill="#0B8FFE" transform="translate(0,0)"/>
<path d="M0 0 C0 36.96 0 73.92 0 112 C4.62 108.7 9.24 105.4 14 102 C16.89148569 100.20226079 19.70687171 98.49007627 22.6875 96.875 C23.43531738 96.46668945 24.18313477 96.05837891 24.95361328 95.63769531 C60.15431813 76.81809651 100.47031786 69.17732085 140 76 C140.88977539 76.15065918 141.77955078 76.30131836 142.69628906 76.45654297 C180.4118161 83.05517551 213.09309954 99.9199621 241 126 C239.76652505 129.56190627 238.10990083 132.43448691 235.92919922 135.50048828 C224.16543249 152.07523315 215.50809201 170.65439811 208.78808594 189.77392578 C207.57467111 193.20140916 206.28559439 196.59901849 205 200 C204.01 200 203.02 200 202 200 C200.7109375 198.6015625 200.7109375 198.6015625 199.375 196.625 C182.3456691 172.99161151 156.9275857 158.59138185 128.43359375 153.6875 C99.78025868 149.54663093 71.57142198 155.64251855 48.171875 172.7421875 C27.43822657 188.4067638 11.70714801 210.38610129 6 236 C5.6292334 237.39484619 5.6292334 237.39484619 5.25097656 238.81787109 C3.17530324 246.94001763 2.52455152 254.50775677 2.625 262.875 C2.63515137 264.10589355 2.64530273 265.33678711 2.65576172 266.60498047 C2.80652659 275.44167211 3.47752997 283.4902332 6 292 C6.19867676 292.69706055 6.39735352 293.39412109 6.60205078 294.11230469 C14.70760842 322.1508554 32.2549866 346.67017635 58.00488281 361.12548828 C65.68976253 365.20773999 73.60878966 368.42667307 81.9375 370.9375 C82.59854736 371.13706299 83.25959473 371.33662598 83.94067383 371.54223633 C112.59405864 379.54093479 143.02853763 373.3299133 168.41015625 359.1484375 C200.69998193 340.34676685 215.41953621 304.2606092 228 271 C228.3609375 270.06687988 228.721875 269.13375977 229.09375 268.17236328 C231.78031909 261.07232948 233.70416071 253.87076234 235.5 246.5 C235.80550781 245.26822021 236.11101562 244.03644043 236.42578125 242.76733398 C238.11341232 235.89158388 239.64173865 229.00963595 241 222.0625 C243.82709309 207.97585647 248.66680061 194.54501276 254.5 181.4375 C254.84313232 180.66543213 255.18626465 179.89336426 255.53979492 179.09790039 C257.09911089 175.71089418 258.67212078 172.49523837 260.73507023 169.37929916 C265.82834935 161.60931959 267.00847051 155.70830194 266.88647461 146.52050781 C266.89725037 145.23128418 266.90802612 143.94206055 266.91912842 142.61376953 C266.94757162 139.1182705 266.93376042 135.6241284 266.91168666 132.12863255 C266.89593586 128.46104103 266.91997807 124.79370182 266.93959045 121.12615967 C266.97069434 114.19904051 266.96660987 107.27241865 266.94951588 100.34526896 C266.93177721 92.45144913 266.95382513 84.55789197 266.97902286 76.66411066 C267.02992209 60.44262772 267.03148215 44.22153688 267 28 C271.71233962 25.88689471 276.41769057 23.77946389 281.22167969 21.88110352 C282.14003601 21.51714981 283.05839233 21.15319611 284.00457764 20.7782135 C285.44863983 20.20930641 285.44863983 20.20930641 286.921875 19.62890625 C287.94371887 19.22469955 288.96556274 18.82049286 290.01837158 18.40403748 C292.16944869 17.55354462 294.32088294 16.70395452 296.47265625 15.85522461 C299.72733338 14.57144069 302.98094986 13.28499991 306.234375 11.99804688 C311.28722436 10.00029726 316.34283535 8.0096794 321.40014648 6.02325439 C323.70422227 5.11641266 326.00580489 4.20359464 328.30664062 3.28857422 C329.46873047 2.83111816 330.63082031 2.37366211 331.828125 1.90234375 C332.78106445 1.52456787 333.73400391 1.14679199 334.71582031 0.75756836 C337 0 337 0 340 0 C340 31.02 340 62.04 340 94 C345.28 91.36 350.56 88.72 356 86 C377.42546676 77.36337774 397.62449227 73.62511049 420.62548828 73.62939453 C423.23406635 73.62502668 425.84093785 73.58855398 428.44921875 73.55078125 C444.15863077 73.44587407 459.19712212 76.1130224 474.1875 80.8125 C475.41400269 81.19088013 475.41400269 81.19088013 476.6652832 81.5769043 C514.50144505 93.54926061 547.51540868 116.94483273 571 149 C571.41604492 149.56638184 571.83208984 150.13276367 572.26074219 150.71630859 C595.93770736 183.43408164 607.46996861 221.30416019 607.375 261.5 C607.37478851 262.33083099 607.37457703 263.16166199 607.37435913 264.01766968 C607.33977784 277.67793675 606.34424803 290.7054462 603 304 C602.81808105 304.74862305 602.63616211 305.49724609 602.44873047 306.26855469 C594.64425998 337.5840797 578.82657787 366.34224335 557 390 C556.46536133 390.57991699 555.93072266 391.15983398 555.37988281 391.75732422 C542.44592143 405.60422617 527.62355809 416.92748185 511 426 C510.05954834 426.51554443 510.05954834 426.51554443 509.10009766 427.04150391 C482.57157472 441.38615815 453.78552533 448.66975277 423.6875 448.375 C422.83593323 448.37034729 421.98436646 448.36569458 421.10699463 448.36090088 C373.3033032 448.0553065 331.70419774 430.54388253 296 399 C297.62303968 394.19617567 300.31616753 390.35374491 303.125 386.1875 C308.46649813 378.08692744 312.93918014 369.80351 317 361 C317.30389648 360.34676758 317.60779297 359.69353516 317.92089844 359.02050781 C322.59536228 348.89832303 326.43264337 338.55833023 330 328 C330.99 328 331.98 328 333 328 C334.62109375 329.765625 334.62109375 329.765625 336.4375 332.25 C351.46844681 351.69370184 371.98012254 365.39129765 396 371 C397.11890625 371.3403125 398.2378125 371.680625 399.390625 372.03125 C426.13265662 379.20876498 455.04229778 371.59341194 478.5625 358.5 C503.7525513 342.93938659 522.12162837 317.89561939 529 289 C530.755987 280.14045225 531.31225615 271.51676621 531.25 262.5 C531.25773438 261.37980469 531.26546875 260.25960938 531.2734375 259.10546875 C531.24813514 248.13689358 529.96687885 237.51903727 526.375 227.125 C526.11485107 226.36670898 525.85470215 225.60841797 525.58666992 224.82714844 C515.93777876 197.77291358 495.521904 175.68883577 469.75 163.1875 C455.02333712 156.29435899 440.15884371 152.82127304 423.9375 152.8125 C422.77283203 152.80025391 421.60816406 152.78800781 420.40820312 152.77539062 C412.73603391 152.76256806 405.51588281 153.47572861 398 155 C396.99976807 155.20165771 395.99953613 155.40331543 394.96899414 155.61108398 C371.49544694 160.58738325 348.21915005 175.8797985 335 196 C319.27283134 221.47163328 311.14355419 251.29632526 301.63037109 279.44970703 C274.73566819 359.01847081 274.73566819 359.01847081 251 385 C250.27425781 385.84304688 249.54851562 386.68609375 248.80078125 387.5546875 C243.59816016 393.52907612 238.03458812 398.87393413 232 404 C231.47728516 404.45101074 230.95457031 404.90202148 230.41601562 405.36669922 C203.11313637 428.77709482 169.54609493 443.29450073 134 448 C132.92234375 448.15082031 131.8446875 448.30164063 130.734375 448.45703125 C127.81141707 448.77753102 124.94040737 448.91813251 122 449 C121.19079102 449.02578125 120.38158203 449.0515625 119.54785156 449.078125 C66.16358947 450.57295908 19.96941855 431.28011623 -18.92578125 395.29296875 C-45.74908589 369.38021476 -64.28025327 333.32258466 -70.54907417 296.63569832 C-70.85183969 294.8660091 -71.1724307 293.09928494 -71.51000786 291.33590508 C-73.55196762 279.36238305 -73.26575 267.38712804 -73.22705078 255.27783203 C-73.22648585 252.79304 -73.22680483 250.30824764 -73.22793579 247.82345581 C-73.22838915 242.49908045 -73.22276879 237.17476608 -73.21146011 231.85040665 C-73.19512097 224.15253724 -73.18998856 216.45469146 -73.18748413 208.7568066 C-73.18312014 196.26380156 -73.16984644 183.77082282 -73.15087891 171.27783203 C-73.1324864 159.15088023 -73.11834645 147.02393561 -73.10986328 134.89697266 C-73.10933783 134.1479279 -73.10881239 133.39888314 -73.10827102 132.62714006 C-73.10566071 128.86894303 -73.10313335 125.11074595 -73.10064721 121.35254884 C-73.07995512 90.23501344 -73.0446152 59.11751074 -73 28 C-71.71756671 27.35400736 -70.4345849 26.70910357 -69.151371 26.06466293 C-68.43696924 25.70541599 -67.72256749 25.34616905 -66.98651719 24.97603583 C-64.87625615 23.93920091 -62.7543072 23.03167225 -60.55371094 22.20410156 C-59.77799744 21.90989319 -59.00228394 21.61568481 -58.20306396 21.31256104 C-57.38839661 21.00832214 -56.57372925 20.70408325 -55.734375 20.390625 C-54.86089417 20.06012146 -53.98741333 19.72961792 -53.08746338 19.38909912 C-50.30980187 18.338725 -47.53007019 17.29398033 -44.75 16.25 C-41.11881087 14.88279638 -37.48877909 13.51255964 -33.859375 12.140625 C-32.96657837 11.80405884 -32.07378174 11.46749268 -31.15393066 11.12072754 C-23.81079898 8.33985545 -16.52358641 5.42796931 -9.26849365 2.42486572 C-8.48798645 2.10644714 -7.70747925 1.78802856 -6.90332031 1.45996094 C-6.21957336 1.17731384 -5.53582642 0.89466675 -4.83135986 0.60345459 C-3 0 -3 0 0 0 Z " fill="#F7F7F8" transform="translate(289,316)"/>
</svg>
