<?xml version="1.0" encoding="UTF-8"?>
<!DOCTYPE svg PUBLIC "-//W3C//DTD SVG 1.1//EN" "http://www.w3.org/Graphics/SVG/1.1/DTD/svg11.dtd">
<svg xmlns="http://www.w3.org/2000/svg" version="1.1" width="300px" height="300px" style="shape-rendering:geometricPrecision; text-rendering:geometricPrecision; image-rendering:optimizeQuality; fill-rule:evenodd; clip-rule:evenodd" xmlns:xlink="http://www.w3.org/1999/xlink">
<g><path style="opacity:0.999" fill="#cd0023" d="M 130.5,-0.5 C 143.167,-0.5 155.833,-0.5 168.5,-0.5C 186.478,2.15922 203.478,7.82588 219.5,16.5C 217.621,16.3932 217.288,16.8932 218.5,18C 244.562,31.3953 264.729,50.8953 279,76.5C 279.464,75.9056 279.631,75.2389 279.5,74.5C 283.75,80.663 287.25,87.3296 290,94.5C 294.342,106.332 297.509,118.332 299.5,130.5C 299.5,143.167 299.5,155.833 299.5,168.5C 293.721,208.747 275.054,241.414 243.5,266.5C 243.103,265.475 242.437,265.308 241.5,266C 234.044,272.118 226.044,277.451 217.5,282C 218.094,282.464 218.761,282.631 219.5,282.5C 203.478,291.174 186.478,296.841 168.5,299.5C 155.833,299.5 143.167,299.5 130.5,299.5C 122.558,298.008 114.558,296.174 106.5,294C 100.786,292.491 95.4522,290.325 90.5,287.5C 92.3786,287.607 92.7119,287.107 91.5,286C 59.7348,272.541 35.5681,250.708 19,220.5C 18.5172,221.448 18.3505,222.448 18.5,223.5C 8.77038,206.31 2.43705,187.977 -0.5,168.5C -0.5,155.833 -0.5,143.167 -0.5,130.5C 1.49132,118.332 4.65799,106.332 9,94.5C 11.7497,87.3296 15.2497,80.663 19.5,74.5C 19.369,75.2389 19.5357,75.9056 20,76.5C 26.3107,66.0463 33.4774,56.213 41.5,47C 41.2716,46.6012 40.9382,46.4346 40.5,46.5C 41.5,43.5 43.5,41.5 46.5,40.5C 46.4346,40.9382 46.6012,41.2716 47,41.5C 62.8654,26.9769 81.0321,16.1436 101.5,9C 102.756,8.58309 103.423,7.74975 103.5,6.5C 112.281,3.2777 121.281,0.944362 130.5,-0.5 Z M 227.5,87.5 C 218.213,107.492 209.379,127.825 201,148.5C 200.41,152.297 200.91,155.964 202.5,159.5C 201.919,163.245 200.253,166.412 197.5,169C 194.53,169.763 192.03,171.263 190,173.5C 181.058,193.718 172.391,214.051 164,234.5C 163.333,236.5 163.333,238.5 164,240.5C 168.645,251.182 165.311,257.849 154,260.5C 146.77,259.937 142.937,256.104 142.5,249C 144.183,244.699 144.683,240.199 144,235.5C 134.315,214.796 124.148,194.463 113.5,174.5C 110.983,172.265 107.983,170.765 104.5,170C 102.383,168.269 100.883,166.102 100,163.5C 100.333,158.167 100.667,152.833 101,147.5C 99.7258,144.609 98.2258,141.942 96.5,139.5C 89.2316,122.293 81.3983,105.293 73,88.5C 69.9446,87.0859 66.7779,85.9193 63.5,85C 56.9012,78.4069 56.9012,71.7403 63.5,65C 68.4121,61.8448 73.4121,61.6781 78.5,64.5C 79.8818,66.5486 81.5484,68.2153 83.5,69.5C 127.331,70.6648 171.331,70.8314 215.5,70C 216.416,69.7216 217.082,69.2216 217.5,68.5C 224.182,59.6424 231.349,59.309 239,67.5C 241.812,73.9022 240.645,79.4022 235.5,84C 232.599,84.8751 229.932,86.0418 227.5,87.5 Z"/></g>
<g><path style="opacity:0.918" fill="#d20024" d="M 103.5,6.5 C 103.423,7.74975 102.756,8.58309 101.5,9C 81.0321,16.1436 62.8654,26.9769 47,41.5C 46.6012,41.2716 46.4346,40.9382 46.5,40.5C 62.4895,24.3299 81.4895,12.9966 103.5,6.5 Z"/></g>
<g><path style="opacity:0.984" fill="#d10024" d="M 219.5,16.5 C 245.599,29.5448 265.599,48.8781 279.5,74.5C 279.631,75.2389 279.464,75.9056 279,76.5C 264.729,50.8953 244.562,31.3953 218.5,18C 217.288,16.8932 217.621,16.3932 219.5,16.5 Z"/></g>
<g><path style="opacity:0.922" fill="#d10024" d="M 40.5,46.5 C 40.9382,46.4346 41.2716,46.6012 41.5,47C 33.4774,56.213 26.3107,66.0463 20,76.5C 19.5357,75.9056 19.369,75.2389 19.5,74.5C 22.4766,68.5544 25.9766,62.8877 30,57.5C 33.002,53.3319 36.502,49.6652 40.5,46.5 Z"/></g>
<g><path style="opacity:0.997" fill="#d10024" d="M 227.5,87.5 C 229.932,86.0418 232.599,84.8751 235.5,84C 240.645,79.4022 241.812,73.9022 239,67.5C 231.349,59.309 224.182,59.6424 217.5,68.5C 172.761,68.1722 128.095,68.5056 83.5,69.5C 81.5484,68.2153 79.8818,66.5486 78.5,64.5C 77.537,63.6365 77.537,62.9698 78.5,62.5C 80.1667,63.5 81.5,64.8333 82.5,66.5C 127.163,67.6666 171.83,67.8333 216.5,67C 223.618,57.5463 231.451,57.0463 240,65.5C 245.032,72.6888 244.199,79.1888 237.5,85C 234.522,86.8824 231.355,88.3824 228,89.5C 227.536,88.9056 227.369,88.2389 227.5,87.5 Z"/></g>
<g><path style="opacity:0.932" fill="#cd0023" d="M 217.5,68.5 C 217.082,69.2216 216.416,69.7216 215.5,70C 171.331,70.8314 127.331,70.6648 83.5,69.5C 128.095,68.5056 172.761,68.1722 217.5,68.5 Z"/></g>
<g><path style="opacity:0.945" fill="#cd0023" d="M 211.5,82.5 C 191.511,81.167 171.178,80.5003 150.5,80.5C 129.997,80.5 109.664,80.8334 89.5,81.5C 88.0047,81.5852 87.0047,80.9185 86.5,79.5C 128.828,78.5001 171.161,78.1667 213.5,78.5C 213.771,80.3797 213.104,81.713 211.5,82.5 Z"/></g>
<g><path style="opacity:1" fill="#cd0024" d="M 208.5,84.5 C 200.073,91.8864 191.073,98.5531 181.5,104.5C 181.631,103.761 181.464,103.094 181,102.5C 173.077,108.212 165.244,114.045 157.5,120C 158.094,120.464 158.761,120.631 159.5,120.5C 158.101,121.89 156.434,122.89 154.5,123.5C 151.692,122.886 149.025,121.719 146.5,120C 128.5,107.333 110.5,94.6667 92.5,82C 131.167,81.3333 169.833,81.3333 208.5,82C 206.158,83.3919 206.158,84.2252 208.5,84.5 Z"/></g>
<g><path style="opacity:1" fill="#cd0023" d="M 82.5,89.5 C 83.8734,89.3433 85.2068,89.51 86.5,90C 105.833,103.333 125.167,116.667 144.5,130C 136.124,138.219 126.79,145.053 116.5,150.5C 111.331,149.501 107.831,146.501 106,141.5C 97.8806,124.264 90.0473,106.93 82.5,89.5 Z"/></g>
<g><path style="opacity:1" fill="#cd0023" d="M 194.5,141.5 C 194.631,140.761 194.464,140.094 194,139.5C 192.228,144.636 188.728,146.47 183.5,145C 176.115,140.647 169.115,135.814 162.5,130.5C 174.336,121.505 186.336,112.672 198.5,104C 197.906,103.536 197.239,103.369 196.5,103.5C 202.518,98.8343 208.851,94.501 215.5,90.5C 215.833,90.8333 216.167,91.1667 216.5,91.5C 209.666,108.491 202.332,125.158 194.5,141.5 Z"/></g>
<g><path style="opacity:0.837" fill="#d10024" d="M 181.5,104.5 C 174.47,110.188 167.137,115.522 159.5,120.5C 158.761,120.631 158.094,120.464 157.5,120C 165.244,114.045 173.077,108.212 181,102.5C 181.464,103.094 181.631,103.761 181.5,104.5 Z"/></g>
<g><path style="opacity:0.839" fill="#d20024" d="M 211.5,82.5 C 210.5,83.1667 209.5,83.8333 208.5,84.5C 206.158,84.2252 206.158,83.3919 208.5,82C 169.833,81.3333 131.167,81.3333 92.5,82C 110.5,94.6667 128.5,107.333 146.5,120C 149.025,121.719 151.692,122.886 154.5,123.5C 152.228,124.764 149.895,124.598 147.5,123C 127.924,109.39 108.59,95.5569 89.5,81.5C 109.664,80.8334 129.997,80.5 150.5,80.5C 171.178,80.5003 191.511,81.167 211.5,82.5 Z"/></g>
<g><path style="opacity:1" fill="#d20024" d="M 196.5,103.5 C 197.239,103.369 197.906,103.536 198.5,104C 186.336,112.672 174.336,121.505 162.5,130.5C 169.115,135.814 176.115,140.647 183.5,145C 188.728,146.47 192.228,144.636 194,139.5C 194.464,140.094 194.631,140.761 194.5,141.5C 194.528,143.582 193.861,145.416 192.5,147C 189.5,147.667 186.5,147.667 183.5,147C 174.824,141.997 166.49,136.497 158.5,130.5C 171.185,121.475 183.851,112.475 196.5,103.5 Z"/></g>
<g><path style="opacity:1" fill="#cd0023" d="M 176.5,152.5 C 178.805,154.629 179.139,157.129 177.5,160C 177.712,162.982 178.879,165.482 181,167.5C 181.667,169.167 181.667,170.833 181,172.5C 172.333,192.5 163.667,212.5 155,232.5C 154.311,233.357 153.478,234.023 152.5,234.5C 140.895,212.455 130.228,189.955 120.5,167C 121.717,162.901 122.883,158.735 124,154.5C 131.065,149.255 138.231,144.255 145.5,139.5C 144.537,140.363 144.537,141.03 145.5,141.5C 147.592,138.848 150.258,138.014 153.5,139C 160.362,144.028 167.362,148.862 174.5,153.5C 175.321,156.447 175.821,159.447 176,162.5C 176.498,159.183 176.665,155.85 176.5,152.5 Z"/></g>
<g><path style="opacity:0.685" fill="#d30024" d="M 176.5,152.5 C 176.665,155.85 176.498,159.183 176,162.5C 175.821,159.447 175.321,156.447 174.5,153.5C 167.362,148.862 160.362,144.028 153.5,139C 150.258,138.014 147.592,138.848 145.5,141.5C 144.537,141.03 144.537,140.363 145.5,139.5C 147.516,136.856 150.183,136.023 153.5,137C 161.344,142.03 169.011,147.196 176.5,152.5 Z"/></g>
<g><path style="opacity:0.502" fill="#d10024" d="M 96.5,139.5 C 98.2258,141.942 99.7258,144.609 101,147.5C 100.667,152.833 100.333,158.167 100,163.5C 100.883,166.102 102.383,168.269 104.5,170C 107.983,170.765 110.983,172.265 113.5,174.5C 113.631,175.239 113.464,175.906 113,176.5C 108.117,174.757 103.784,172.091 100,168.5C 96.8559,162.773 96.6892,156.94 99.5,151C 98.1165,146.898 96.4499,142.898 94.5,139C 94.6667,138.5 94.8333,138 95,137.5C 95.2784,138.416 95.7784,139.082 96.5,139.5 Z"/></g>
<g><path style="opacity:0.984" fill="#d20024" d="M 243.5,266.5 C 236.321,273.003 228.321,278.336 219.5,282.5C 218.761,282.631 218.094,282.464 217.5,282C 226.044,277.451 234.044,272.118 241.5,266C 242.437,265.308 243.103,265.475 243.5,266.5 Z"/></g>
<g><path style="opacity:0.992" fill="#d20024" d="M 90.5,287.5 C 59.2756,274.275 35.2756,252.941 18.5,223.5C 18.3505,222.448 18.5172,221.448 19,220.5C 35.5681,250.708 59.7348,272.541 91.5,286C 92.7119,287.107 92.3786,287.607 90.5,287.5 Z"/></g>
</svg>
