<?xml version="1.0" encoding="UTF-8"?>
<!DOCTYPE svg PUBLIC "-//W3C//DTD SVG 1.1//EN" "http://www.w3.org/Graphics/SVG/1.1/DTD/svg11.dtd">
<svg xmlns="http://www.w3.org/2000/svg" version="1.1" width="1500px" height="1500px" style="shape-rendering:geometricPrecision; text-rendering:geometricPrecision; image-rendering:optimizeQuality; fill-rule:evenodd; clip-rule:evenodd" xmlns:xlink="http://www.w3.org/1999/xlink">
<g><path style="opacity:1" fill="#8ac8a2" d="M 1296.5,580.5 C 1268.07,493.097 1222.4,416.263 1159.5,350C 1155.9,346.559 1151.9,343.725 1147.5,341.5C 1084.03,277.73 1009.03,232.23 922.5,205C 921.944,204.617 921.611,204.117 921.5,203.5C 971.36,169.569 1023.69,139.402 1078.5,113C 1117.88,94.5417 1158.88,80.875 1201.5,72C 1235.98,65.4872 1270.32,66.1539 1304.5,74C 1369.44,94.6098 1410.94,137.776 1429,203.5C 1435.77,238.737 1435.43,274.071 1428,309.5C 1417.45,353.587 1402.12,395.92 1382,436.5C 1357.77,485.326 1329.77,531.659 1298,575.5C 1296.99,577.025 1296.49,578.692 1296.5,580.5 Z"/></g>
<g><path style="opacity:1" fill="#1d3245" d="M 921.5,203.5 C 921.611,204.117 921.944,204.617 922.5,205C 1009.03,232.23 1084.03,277.73 1147.5,341.5C 1146.84,345.313 1145.67,348.979 1144,352.5C 1124.92,386.894 1104.25,420.227 1082,452.5C 1059.67,482.833 1037.33,513.167 1015,543.5C 1007.92,552.415 999.754,560.082 990.5,566.5C 909.611,469.095 806.611,431.928 681.5,455C 581.717,481.789 511.551,542.623 471,637.5C 439.72,722.862 444.387,806.196 485,887.5C 506.822,926.112 534.989,959.446 569.5,987.5C 566.414,992.092 562.747,996.258 558.5,1000C 509.559,1037.94 459.226,1073.94 407.5,1108C 386.8,1120.68 365.8,1132.85 344.5,1144.5C 296.802,1096.49 258.969,1041.49 231,979.5C 222.169,958.19 213.669,936.857 205.5,915.5C 159.341,753.443 178.174,599.443 262,453.5C 346.725,317.646 467.225,230.479 623.5,192C 723.868,169.439 823.202,173.273 921.5,203.5 Z"/></g>
<g><path style="opacity:1" fill="#207968" d="M 1147.5,341.5 C 1151.9,343.725 1155.9,346.559 1159.5,350C 1222.4,416.263 1268.07,493.097 1296.5,580.5C 1329.73,700.715 1326.89,820.049 1288,938.5C 1245.46,1051.78 1175.29,1143.95 1077.5,1215C 956.79,1296.43 823.79,1329.09 678.5,1313C 645.059,1308.22 612.059,1301.39 579.5,1292.5C 521.754,1272.13 467.754,1244.63 417.5,1210C 400.098,1197.29 383.431,1183.62 367.5,1169C 359.262,1161.27 351.595,1153.1 344.5,1144.5C 365.8,1132.85 386.8,1120.68 407.5,1108C 459.226,1073.94 509.559,1037.94 558.5,1000C 562.747,996.258 566.414,992.092 569.5,987.5C 571.167,987.5 572.833,987.5 574.5,987.5C 642.147,1039.24 718.147,1057.41 802.5,1042C 905.712,1021.43 979.546,963.598 1024,868.5C 1064.18,770.351 1056.85,676.017 1002,585.5C 998.631,580.071 994.798,575.071 990.5,570.5C 990.5,569.167 990.5,567.833 990.5,566.5C 999.754,560.082 1007.92,552.415 1015,543.5C 1037.33,513.167 1059.67,482.833 1082,452.5C 1104.25,420.227 1124.92,386.894 1144,352.5C 1145.67,348.979 1146.84,345.313 1147.5,341.5 Z"/></g>
<g><path style="opacity:1" fill="#8ac8a2" d="M 990.5,570.5 C 994.798,575.071 998.631,580.071 1002,585.5C 1056.85,676.017 1064.18,770.351 1024,868.5C 979.546,963.598 905.712,1021.43 802.5,1042C 718.147,1057.41 642.147,1039.24 574.5,987.5C 666.018,911.507 753.518,830.507 837,744.5C 867.667,711.167 898.333,677.833 929,644.5C 950.495,620.519 970.995,595.852 990.5,570.5 Z"/></g>
<g><path style="opacity:1" fill="#8ac8a2" d="M 205.5,915.5 C 213.669,936.857 222.169,958.19 231,979.5C 258.969,1041.49 296.802,1096.49 344.5,1144.5C 351.595,1153.1 359.262,1161.27 367.5,1169C 383.431,1183.62 400.098,1197.29 417.5,1210C 467.754,1244.63 521.754,1272.13 579.5,1292.5C 523.157,1333.86 462.49,1368.36 397.5,1396C 349.448,1416.01 299.448,1427.51 247.5,1430.5C 174.498,1429.27 120.332,1396.93 85,1333.5C 65.983,1294.02 60.3164,1252.69 68,1209.5C 79.4662,1147.1 100.466,1088.1 131,1032.5C 153.688,992.01 178.522,953.01 205.5,915.5 Z"/></g>
</svg>
